<svg xmlns="http://www.w3.org/2000/svg" width="32.729" height="43.06" viewBox="0 0 32.729 43.06"><defs></defs><ellipse class="a" cx="0.882" cy="0.588" rx="0.882" ry="0.588" transform="translate(15.423 41.883)"/><path class="a" d="M31.867,43.059H20.24a.841.841,0,1,1,0-1.682H31.006V38.014H31V36.332h.007V9.251H24.977v1.681a.862.862,0,0,1-1.723,0V9.251H9.474v1.681a.862.862,0,0,1-1.723,0V9.251H1.723v27.08h.156v1.682H1.723v3.364H12.489a.841.841,0,1,1,0,1.682H.861A.852.852,0,0,1,0,42.219V8.41a.852.852,0,0,1,.861-.841h6.89V5.887A5.966,5.966,0,0,1,13.781,0h5.168a5.966,5.966,0,0,1,6.029,5.887V7.569h6.89a.852.852,0,0,1,.862.841V42.219A.852.852,0,0,1,31.867,43.059ZM13.781,1.682a4.262,4.262,0,0,0-4.307,4.2V7.569H23.254V5.887a4.261,4.261,0,0,0-4.306-4.2Z" transform="translate(0 0)"/><path class="a" d="M147.23,200.273a.67.67,0,0,0,.948.948l.867-.867v2.4a.67.67,0,0,0,1.341,0v-2.4l.867.867a.67.67,0,0,0,.948-.948l-1.815-1.815V197.31a2.682,2.682,0,0,0,1.241-.719l1,.575.664,2.479a.67.67,0,0,0,1.295-.347l-.317-1.184,2.081,1.2a.67.67,0,0,0,.67-1.161l-2.081-1.2,1.184-.317a.67.67,0,0,0-.347-1.295l-2.479.664-.995-.574a2.668,2.668,0,0,0,0-1.435l.995-.574,2.479.664a.67.67,0,1,0,.347-1.295l-1.184-.317,2.081-1.2a.67.67,0,0,0-.67-1.161l-2.082,1.2.317-1.184a.67.67,0,0,0-1.295-.347l-.664,2.479-1,.575a2.682,2.682,0,0,0-1.241-.719V190.97l1.815-1.815a.67.67,0,0,0-.948-.948l-.867.867v-2.4a.67.67,0,0,0-1.341,0v2.4l-.867-.867a.67.67,0,0,0-.948.948l1.815,1.815v1.148a2.683,2.683,0,0,0-1.241.719l-1-.575-.664-2.479a.67.67,0,1,0-1.295.347l.317,1.184-2.081-1.2a.67.67,0,0,0-.67,1.161l2.081,1.2-1.184.317a.67.67,0,0,0,.347,1.295l2.479-.664.995.574a2.668,2.668,0,0,0,0,1.435l-.995.574-2.479-.664a.67.67,0,1,0-.347,1.295l1.184.317-2.081,1.2a.67.67,0,0,0,.67,1.161l2.081-1.2-.317,1.184a.67.67,0,0,0,1.295.347l.664-2.479,1-.575a2.682,2.682,0,0,0,1.241.719v1.148Zm1.144-5.559a1.341,1.341,0,1,1,1.341,1.341A1.342,1.342,0,0,1,148.374,194.714Z" transform="translate(-133.27 -169.564)"/></svg>