<?xml version="1.0" encoding="utf-8"?>
<!-- Generator: Adobe Illustrator 24.3.0, SVG Export Plug-In . SVG Version: 6.00 Build 0)  -->
<svg version="1.1" id="Camada_1" xmlns="http://www.w3.org/2000/svg" xmlns:xlink="http://www.w3.org/1999/xlink" x="0px" y="0px"
	 viewBox="0 0 35.4 47.7" style="enable-background:new 0 0 35.4 47.7;" xml:space="preserve">
<style type="text/css">
	.st0{fill:#535BFE;}
</style>
<g transform="translate(0)">
	<circle class="st0" cx="23.3" cy="29" r="1"/>
	<ellipse class="st0" cx="17.7" cy="29" rx="0.7" ry="1"/>
	<circle class="st0" cx="12.1" cy="29" r="1"/>
	<circle class="st0" cx="29.2" cy="5.4" r="1"/>
	<path class="st0" d="M26.6,2.4C18.2-2.5,7.3,0.3,2.4,8.8c-3.6,6.1-3.1,13.8,1.1,19.5l12.4,17.5H6.5c-0.5,0-0.9,0.4-1,0.9
		c0,0.5,0.4,0.9,0.9,1c0,0,0,0,0.1,0h22.4c0.5,0,0.9-0.4,1-0.9c0-0.5-0.4-0.9-0.9-1c0,0,0,0-0.1,0h-9.4l12.4-17.5
		c4.3-5.8,4.7-13.6,1-19.7C32.6,8.1,32,8,31.6,8.2C31.1,8.5,31,9,31.2,9.5c0,0,0,0,0,0c3.3,5.5,3,12.5-0.9,17.7l-12.7,18L5,27.2
		c-5.2-7-3.8-16.9,3.2-22.2c5.1-3.8,12-4.2,17.4-1c0.4,0.3,1,0.2,1.3-0.3C27.2,3.3,27.1,2.7,26.6,2.4C26.7,2.4,26.6,2.4,26.6,2.4z"
		/>
</g>
<g>
	<g>
		<g>
			<path class="st0" d="M19,21.1l-0.7-0.7v-4l3.4-2l2.2,0.6c0.1,0,0.1,0,0.2,0c0.3,0,0.5-0.2,0.6-0.4c0.1-0.3-0.1-0.6-0.4-0.7
				l-1.1-0.3l0.9-0.5c0.3-0.2,0.4-0.5,0.2-0.8c-0.2-0.3-0.5-0.4-0.8-0.2l-0.8,0.5c0.1-0.4,0.2-0.8,0.3-1c0.1-0.3-0.1-0.6-0.4-0.7
				c-0.3-0.1-0.6,0.1-0.7,0.4l-0.6,2.2L18.3,15v-3.3l1.6-1.6c0.2-0.2,0.2-0.6,0-0.8c-0.2-0.2-0.6-0.2-0.8,0L18.3,10V9
				c0-0.3-0.3-0.6-0.6-0.6c-0.3,0-0.6,0.3-0.6,0.6v1c-0.3-0.3-0.6-0.6-0.8-0.8c-0.2-0.2-0.6-0.2-0.8,0c-0.2,0.2-0.2,0.6,0,0.8
				l1.6,1.6V15l-2.9-1.7l-0.6-2.2c-0.1-0.3-0.4-0.5-0.7-0.4c-0.3,0.1-0.5,0.4-0.4,0.7c0.1,0.3,0.2,0.7,0.3,1.1L12,12
				c-0.3-0.2-0.6-0.1-0.8,0.2c-0.2,0.3-0.1,0.6,0.2,0.8l0.9,0.5l-1.1,0.3c-0.3,0.1-0.5,0.4-0.4,0.7c0.1,0.3,0.3,0.4,0.6,0.4
				c0,0,0.1,0,0.1,0l2.2-0.6l2.9,1.7l-2.9,1.7l-2.2-0.6c-0.3-0.1-0.6,0.1-0.7,0.4c-0.1,0.3,0.1,0.6,0.4,0.7l1.1,0.3l-0.8,0.5
				c-0.3,0.2-0.4,0.5-0.2,0.8c0.1,0.2,0.3,0.3,0.5,0.3c0.1,0,0.2,0,0.3-0.1l0.8-0.5c-0.1,0.4-0.2,0.8-0.3,1
				c-0.1,0.3,0.1,0.6,0.4,0.7c0.1,0,0.1,0,0.2,0c0.3,0,0.5-0.2,0.6-0.4l0.6-2.2l2.9-1.7v3.3L15.5,22c-0.2,0.2-0.2,0.6,0,0.8
				c0.1,0.1,0.3,0.2,0.4,0.2c0.2,0,0.3-0.1,0.4-0.2l0.8-0.8v1c0,0.3,0.3,0.6,0.6,0.6s0.6-0.3,0.6-0.6v-1c0.3,0.3,0.6,0.6,0.8,0.8
				c0.1,0.1,0.3,0.2,0.4,0.2c0.2,0,0.3-0.1,0.4-0.2c0.2-0.2,0.2-0.6,0-0.8L19,21.1z"/>
			<path class="st0" d="M23.9,17.2l-2.2,0.6l-1.5-0.9c-0.3-0.2-0.6-0.1-0.8,0.2c-0.2,0.3-0.1,0.6,0.2,0.8l1.5,0.9l0.6,2.3
				c0.1,0.3,0.3,0.4,0.6,0.4c0,0,0.1,0,0.2,0c0.3-0.1,0.5-0.4,0.4-0.7c-0.1-0.3-0.2-0.7-0.3-1.1l0.9,0.5c0.1,0.1,0.2,0.1,0.3,0.1
				c0.2,0,0.4-0.1,0.5-0.3c0.2-0.3,0.1-0.6-0.2-0.8l-0.9-0.5l1-0.3c0.3-0.1,0.5-0.4,0.4-0.7C24.6,17.3,24.3,17.1,23.9,17.2z"/>
		</g>
	</g>
</g>
</svg>
