<svg xmlns="http://www.w3.org/2000/svg" width="20" height="11.666" viewBox="0 0 20 11.666"><defs><style>.a{fill:#535bfe;}</style></defs><g transform="translate(-4.5 -10.126)"><path class="a" d="M23.667,11.792H5.333a.836.836,0,0,1-.833-.833h0a.836.836,0,0,1,.833-.833H23.667a.836.836,0,0,1,.833.833h0a.836.836,0,0,1-.833.833Z"/><path class="a" d="M23.667,18.542H5.333a.836.836,0,0,1-.833-.833h0a.836.836,0,0,1,.833-.833H23.667a.836.836,0,0,1,.833.833h0a.836.836,0,0,1-.833.833Z" transform="translate(0 -1.75)"/><path class="a" d="M23.667,25.292H5.333a.836.836,0,0,1-.833-.833h0a.836.836,0,0,1,.833-.833H23.667a.836.836,0,0,1,.833.833h0a.836.836,0,0,1-.833.833Z" transform="translate(0 -3.5)"/></g></svg>